<svg width="540" height="540" viewBox="0 0 540 540" fill="none" xmlns="http://www.w3.org/2000/svg">
<path d="M203.622 361.953C198.202 360.362 192.871 358.483 187.651 356.323C192.978 363.898 197.865 371.773 202.289 379.909C202.389 373.903 202.834 367.908 203.622 361.953Z" fill="black"/>
<path d="M336.378 361.953C337.165 367.908 337.611 373.903 337.711 379.909C342.134 371.773 347.02 363.899 352.345 356.323C347.127 358.483 341.797 360.362 336.378 361.953Z" fill="black"/>
<path d="M297.873 392.473C297.873 381.344 285.71 372.29 270.76 372.29C255.81 372.29 243.647 381.344 243.647 392.473C243.647 403.603 255.81 412.658 270.76 412.658C285.71 412.658 297.873 403.604 297.873 392.473Z" fill="black"/>
<path d="M247.379 434.876C249.697 436.232 252.132 437.375 254.656 438.291C264.943 442.094 276.256 442.061 286.52 438.197C288.859 437.314 291.112 436.216 293.25 434.917C291.586 434.831 289.928 434.644 288.287 434.356C281.351 433.074 274.971 429.706 270 424.702C265.028 429.707 258.647 433.075 251.71 434.356C250.276 434.606 248.831 434.78 247.379 434.876Z" fill="black"/>
<path d="M439.588 325.836C440.343 325.303 441.238 325.003 442.161 324.973C443.085 324.942 443.998 325.182 444.787 325.663C449.395 328.473 454.179 333.268 458.244 337.982C455.096 322.46 448.514 305.635 446.449 300.552C439.897 297.029 414.883 282.846 400.28 264.316C405.015 282.127 404.689 298.879 399.247 313.078C394.273 326.05 385.208 336.984 372.175 345.795C369.305 349.284 351.581 371.256 341.311 393.994C338.193 400.899 335.223 407.03 332.483 412.217C327.612 421.543 319.465 428.739 309.609 432.422C307.394 435.749 301.683 442.582 289.901 447.068C283.721 449.417 277.163 450.618 270.552 450.612C264.018 450.608 257.535 449.455 251.4 447.208C239.048 442.69 232.856 435.711 230.517 432.47C220.609 428.802 212.415 421.586 207.525 412.22C204.782 407.033 201.815 400.903 198.697 393.997C188.426 371.254 170.702 349.279 167.831 345.798C154.8 336.987 145.735 326.058 140.761 313.081C135.319 298.883 134.992 282.13 139.727 264.319C125.118 282.846 100.104 297.029 93.5509 300.552C91.4848 305.635 84.9025 322.46 81.7563 337.982C85.8211 333.268 90.6052 328.473 95.2131 325.663C96.0032 325.181 96.917 324.941 97.842 324.972C98.767 325.002 99.6628 325.303 100.419 325.836C101.176 326.369 101.76 327.112 102.099 327.973C102.439 328.834 102.52 329.775 102.331 330.681C102.249 331.083 94.2934 371.883 123.059 399.447C137.73 413.504 148.109 424.443 155.028 432.151L153.416 422.631C153.241 421.6 153.412 420.54 153.902 419.615C154.393 418.691 155.174 417.955 156.126 417.521C157.078 417.087 158.146 416.979 159.166 417.215C160.185 417.451 161.097 418.017 161.762 418.825C164.275 421.883 181.678 443.263 191.34 460.795C191.528 455.815 191.657 450.354 191.71 445.272C191.72 444.246 192.063 443.251 192.687 442.437C193.311 441.622 194.181 441.031 195.169 440.753C196.157 440.475 197.208 440.524 198.165 440.894C199.122 441.264 199.934 441.933 200.478 442.803C200.595 442.99 212.305 461.658 227.035 481.679C245.176 506.34 259.992 522.418 270.06 528.407C280.123 522.422 294.915 506.344 313.022 481.684C327.722 461.664 339.403 442.997 339.519 442.811C340.063 441.94 340.874 441.27 341.831 440.899C342.788 440.529 343.839 440.479 344.827 440.756C345.815 441.034 346.687 441.624 347.311 442.439C347.935 443.253 348.279 444.248 348.29 445.274C348.343 450.355 348.472 455.821 348.66 460.797C358.322 443.265 375.725 421.879 378.237 418.827C378.902 418.018 379.814 417.452 380.834 417.216C381.853 416.979 382.922 417.087 383.874 417.521C384.826 417.955 385.608 418.692 386.098 419.616C386.588 420.541 386.759 421.602 386.584 422.633L384.973 432.153C391.891 424.454 402.27 413.506 416.941 399.449C445.707 371.889 437.751 331.09 437.668 330.684C437.48 329.776 437.561 328.834 437.903 327.973C438.244 327.111 438.829 326.369 439.588 325.836Z" fill="black"/>
<path d="M357.402 67.9219C342.742 78.4625 326.069 91.336 316.585 98.7378C322.675 101.621 327.506 106.682 331.129 111.821C335.717 101.39 346.36 85.0237 370.919 68.7214C377.739 64.0896 384.023 58.7131 389.654 52.6912C397.943 43.7896 403.423 34.7457 405.968 25.7829C403.842 21.9144 401.862 18.7682 400.189 16.315C395.496 27.9208 383.971 48.8026 357.402 67.9219Z" fill="black"/>
<path d="M140.775 14.9249C138.321 18.4195 136.068 22.0506 134.025 25.8008C140.442 49.8477 157.075 65.1965 170.065 73.8998C194.217 90.0819 205.445 102.246 210.591 109.513C214.119 104.767 218.753 100.956 224.092 98.4118C217.993 93.0825 208.828 85.6406 201.521 82.119C173.074 68.4207 149.424 30.2811 140.775 14.9249Z" fill="black"/>
<path d="M202.489 251.502C207.075 255.41 213.849 256.95 222.669 256.114C215.546 243.276 203.895 240.088 196.028 239.533C196.767 244.139 199.044 248.358 202.489 251.502Z" fill="black"/>
<path d="M337.511 251.502C340.956 248.357 343.234 244.139 343.975 239.533C336.109 240.087 324.455 243.275 317.33 256.114C326.15 256.95 332.925 255.41 337.511 251.502Z" fill="black"/>
<path d="M466.655 305.437C459.597 269.349 431.951 237.189 431.62 236.807C430.907 235.987 430.496 234.948 430.457 233.863C430.418 232.778 430.752 231.712 431.404 230.843C432.056 229.974 432.986 229.355 434.039 229.09C435.092 228.824 436.204 228.927 437.19 229.383L460.703 240.258C456.743 226.969 444.746 210.391 425.469 191.681C413.944 180.578 401.717 170.228 388.864 160.695C388.065 160.119 387.465 159.308 387.147 158.376C386.83 157.443 386.81 156.435 387.091 155.491C387.373 154.547 387.941 153.714 388.717 153.107C389.493 152.5 390.438 152.15 391.422 152.105L393.208 152.024L378.961 146.741C378.197 146.457 377.518 145.982 376.991 145.36C376.464 144.739 376.106 143.992 375.951 143.191C375.796 142.391 375.85 141.564 376.108 140.791C376.365 140.018 376.818 139.324 377.421 138.776L389.877 127.468L356.269 134.382C355.653 134.52 355.017 134.534 354.396 134.424C353.775 134.313 353.183 134.08 352.653 133.738C352.124 133.396 351.668 132.952 351.312 132.431C350.955 131.911 350.707 131.325 350.58 130.707C350.453 130.09 350.45 129.453 350.572 128.835C350.693 128.216 350.937 127.628 351.289 127.104C351.64 126.581 352.093 126.133 352.619 125.786C353.146 125.44 353.737 125.202 354.356 125.086L404.954 114.676C405.973 114.466 407.034 114.597 407.971 115.049C408.909 115.5 409.672 116.248 410.144 117.176C410.615 118.104 410.768 119.161 410.579 120.184C410.391 121.208 409.871 122.141 409.1 122.84L389.588 140.559L418.427 151.252C419.453 151.632 420.317 152.356 420.871 153.3C421.425 154.245 421.636 155.351 421.467 156.433C421.298 157.515 420.761 158.505 419.945 159.236C419.13 159.967 418.087 160.393 416.993 160.443L404.879 160.997C410.853 165.749 418.774 172.345 427.064 180.07C434.093 118.423 425.628 76.0619 417.006 51.0099C415.281 45.997 413.485 41.4797 411.697 37.4202C401.689 58.8304 380.837 73.5349 376.176 76.6283C344.991 97.3307 338.548 117.741 337.39 122.79C338.761 125.786 339.492 127.901 339.604 128.223C340.007 129.415 339.918 130.719 339.359 131.847C338.8 132.975 337.816 133.834 336.623 134.236C335.43 134.638 334.126 134.55 332.998 133.991C331.871 133.432 331.011 132.448 330.609 131.255C328.879 126.542 326.589 122.053 323.789 117.886C318.319 109.859 312.321 105.79 305.965 105.79C304.98 105.794 304.019 105.49 303.215 104.921C302.411 104.352 301.805 103.546 301.481 102.616C301.157 101.685 301.132 100.677 301.409 99.7319C301.687 98.7867 302.252 97.9517 303.027 97.3434L303.014 97.3265C303.13 97.2347 308.227 93.1921 315.761 87.3513C310.856 85.2077 305.732 83.603 300.481 82.5651C281.76 78.648 262.389 79.0973 243.87 83.8782C238.459 85.165 233.194 87.0068 228.161 89.3742C233.322 93.7701 237.004 97.3117 237.337 97.6302C238.018 98.286 238.488 99.1306 238.685 100.055C238.883 100.98 238.799 101.943 238.445 102.82C238.091 103.697 237.483 104.448 236.698 104.976C235.914 105.505 234.99 105.786 234.044 105.785C227.683 105.785 221.685 109.854 216.22 117.88C213.425 122.048 211.14 126.536 209.413 131.247C209.006 132.434 208.146 133.412 207.02 133.967C205.895 134.521 204.595 134.608 203.406 134.207C202.217 133.806 201.235 132.95 200.675 131.827C200.115 130.704 200.023 129.405 200.418 128.214C201.645 124.779 203.144 121.447 204.901 118.249C202.46 113.868 193.492 101.005 164.794 81.7804C152.243 73.3756 136.616 59.304 128.091 37.9518C126.38 41.8731 124.666 46.21 123.018 51.0015C114.396 76.0534 105.932 118.415 112.959 180.061C121.25 172.337 129.171 165.741 135.145 160.989L123.031 160.435C121.937 160.385 120.894 159.959 120.079 159.228C119.263 158.497 118.726 157.507 118.557 156.425C118.388 155.343 118.599 154.236 119.153 153.292C119.707 152.347 120.571 151.624 121.597 151.243L150.436 140.551L130.924 122.832C130.153 122.133 129.633 121.2 129.444 120.176C129.256 119.152 129.409 118.095 129.88 117.167C130.352 116.239 131.115 115.492 132.053 115.04C132.99 114.588 134.05 114.458 135.07 114.668L185.667 125.077C186.287 125.194 186.876 125.433 187.402 125.78C187.928 126.126 188.38 126.575 188.73 127.098C189.081 127.621 189.325 128.209 189.446 128.827C189.567 129.445 189.565 130.081 189.438 130.698C189.311 131.315 189.062 131.901 188.706 132.421C188.351 132.941 187.895 133.385 187.366 133.727C186.837 134.069 186.245 134.302 185.625 134.413C185.005 134.524 184.369 134.511 183.754 134.373L150.147 127.46L162.603 138.767C163.206 139.315 163.659 140.009 163.916 140.782C164.174 141.556 164.228 142.383 164.073 143.183C163.918 143.983 163.56 144.73 163.033 145.352C162.505 145.974 161.827 146.449 161.063 146.732L146.816 152.015L148.602 152.096C149.586 152.141 150.531 152.492 151.308 153.098C152.084 153.705 152.652 154.538 152.933 155.482C153.215 156.426 153.195 157.435 152.878 158.367C152.56 159.3 151.96 160.111 151.161 160.687C138.278 170.241 126.023 180.615 114.474 191.745C95.2227 210.431 83.2531 226.988 79.2969 240.258L102.809 229.382C103.795 228.925 104.908 228.821 105.962 229.087C107.016 229.352 107.947 229.972 108.599 230.841C109.251 231.71 109.585 232.777 109.545 233.863C109.506 234.949 109.094 235.989 108.38 236.808C108.05 237.188 80.4033 269.348 73.3453 305.436C77.3437 299.988 82.2807 294.97 87.8336 292.842C90.4946 291.451 124.208 273.515 136.674 252.039C151.589 226.342 181.318 212.656 197.045 212.656C218.983 212.656 230.268 225.528 230.634 250.903C231.931 253.176 233.048 255.548 233.973 257.995C234.01 258.08 234.038 258.17 234.07 258.257C234.598 259.676 235.105 261.142 235.547 262.695C235.725 263.296 235.783 263.927 235.716 264.55C235.649 265.174 235.459 265.778 235.158 266.328C234.856 266.878 234.448 267.362 233.958 267.753C233.469 268.145 232.906 268.435 232.303 268.608C231.7 268.78 231.069 268.832 230.446 268.759C229.823 268.686 229.221 268.491 228.674 268.184C228.127 267.877 227.647 267.465 227.26 266.971C226.873 266.478 226.589 265.912 226.422 265.308C226.413 265.279 226.404 265.254 226.395 265.225C223.683 265.612 220.947 265.814 218.208 265.83C209.152 265.83 201.792 263.43 196.234 258.648C189.503 252.857 187.216 245.01 186.449 239.869C185.318 239.752 184.266 239.232 183.487 238.403C182.707 237.575 182.253 236.493 182.205 235.357C182.158 234.22 182.522 233.105 183.229 232.215C183.937 231.324 184.942 230.718 186.06 230.508C194.381 228.94 208.302 229.77 219.704 238.358C216.841 227.13 209.631 222.148 197.046 222.148C185.778 222.148 173.211 228.651 162.904 236.92C166.404 246.013 177.826 271.874 196.714 278.464C206.019 281.713 216.209 279.708 226.999 272.513C228.046 271.815 229.328 271.561 230.562 271.808C231.797 272.054 232.882 272.781 233.581 273.828C234.279 274.876 234.533 276.158 234.287 277.392C234.04 278.626 233.313 279.712 232.266 280.411C218.857 289.352 205.837 291.711 193.559 287.418C174.33 280.695 162.223 259.186 156.532 246.391C150.145 259.631 140.473 285.894 149.632 309.725C157.12 329.201 175.773 343.569 205.109 352.487C209.406 330.229 216.695 308.655 226.778 288.352C227.377 287.267 228.375 286.459 229.561 286.101C230.747 285.743 232.026 285.863 233.125 286.435C234.224 287.006 235.055 287.985 235.442 289.162C235.829 290.339 235.741 291.62 235.196 292.733C234.879 293.349 203.344 354.739 213.988 404.064C214.641 405.355 215.283 406.596 215.911 407.79C222.629 420.511 236.356 427.434 250.057 425.008C253.613 424.337 256.982 422.909 259.936 420.82C245.019 417.07 234.155 405.779 234.155 392.469C234.155 376.106 250.575 362.793 270.76 362.793C290.944 362.793 307.365 376.106 307.365 392.469C307.365 406.117 295.939 417.635 280.439 421.085C283.303 423.032 286.539 424.366 289.943 425.004C303.654 427.43 317.372 420.507 324.09 407.785C324.718 406.597 325.356 405.351 326.013 404.06C336.671 354.669 305.13 293.345 304.805 292.73C304.507 292.176 304.322 291.569 304.261 290.943C304.2 290.318 304.263 289.686 304.448 289.086C304.633 288.485 304.935 287.927 305.337 287.444C305.739 286.961 306.233 286.562 306.79 286.272C307.348 285.981 307.957 285.804 308.584 285.751C309.21 285.698 309.84 285.77 310.439 285.963C311.037 286.155 311.591 286.465 312.069 286.873C312.546 287.282 312.938 287.781 313.221 288.342C323.305 308.647 330.594 330.224 334.891 352.484C364.248 343.558 382.91 329.175 390.383 309.676C399.538 285.792 389.866 259.579 383.473 246.372C377.785 259.161 365.675 280.684 346.44 287.41C334.166 291.703 321.144 289.344 307.733 280.402C306.686 279.704 305.959 278.618 305.712 277.384C305.465 276.15 305.719 274.868 306.417 273.821C307.115 272.773 308.201 272.046 309.435 271.8C310.67 271.553 311.952 271.807 312.999 272.505C323.796 279.705 333.992 281.707 343.303 278.45C362.228 271.832 373.611 246.005 377.098 236.914C366.794 228.644 354.221 222.139 342.952 222.139C330.366 222.139 323.157 227.122 320.294 238.35C331.692 229.756 345.613 228.933 353.933 230.5C355.054 230.707 356.063 231.312 356.774 232.203C357.485 233.094 357.85 234.212 357.803 235.351C357.755 236.49 357.298 237.574 356.516 238.403C355.734 239.232 354.679 239.751 353.544 239.864C352.776 245.006 350.486 252.85 343.759 258.638C338.203 263.42 330.841 265.819 321.787 265.819C319.047 265.804 316.311 265.602 313.599 265.215C313.591 265.243 313.581 265.269 313.573 265.297C313.406 265.902 313.121 266.467 312.734 266.961C312.348 267.454 311.867 267.867 311.32 268.173C310.773 268.48 310.171 268.676 309.548 268.748C308.925 268.821 308.294 268.77 307.691 268.597C307.088 268.425 306.526 268.134 306.036 267.743C305.546 267.352 305.138 266.867 304.837 266.317C304.535 265.767 304.345 265.163 304.279 264.54C304.212 263.916 304.269 263.286 304.447 262.685C304.893 261.13 305.397 259.663 305.924 258.243C305.956 258.157 305.983 258.069 306.019 257.986C306.945 255.538 308.062 253.166 309.359 250.892C309.722 225.517 321.012 212.645 342.948 212.645C358.674 212.645 388.405 226.332 403.319 252.028C415.785 273.505 449.499 291.441 452.16 292.832C457.72 294.965 462.657 299.984 466.655 305.437ZM236.301 204.755C235.793 205.116 235.219 205.374 234.611 205.514C234.004 205.653 233.375 205.672 232.76 205.568C232.146 205.464 231.557 205.241 231.029 204.91C230.501 204.579 230.043 204.147 229.682 203.639C226.771 199.547 215.691 197.295 208.755 197.004C207.507 196.939 206.335 196.385 205.493 195.462C204.651 194.538 204.207 193.32 204.258 192.071C204.309 190.823 204.85 189.644 205.764 188.792C206.678 187.94 207.892 187.483 209.141 187.52C212.843 187.724 216.525 188.215 220.152 188.988C228.58 190.802 234.39 193.881 237.416 198.136C238.144 199.161 238.436 200.433 238.227 201.673C238.018 202.913 237.325 204.02 236.301 204.75V204.755ZM250.961 275.4C250.669 275.954 250.271 276.444 249.788 276.843C249.306 277.242 248.749 277.542 248.151 277.725C247.552 277.908 246.923 277.971 246.3 277.91C245.677 277.849 245.072 277.665 244.52 277.37C243.969 277.074 243.481 276.672 243.085 276.187C242.689 275.702 242.394 275.143 242.215 274.543C242.036 273.943 241.977 273.314 242.043 272.691C242.108 272.069 242.296 271.465 242.595 270.915C251.952 253.457 246.948 232.525 246.896 232.32C246.592 231.099 246.784 229.806 247.433 228.727C248.081 227.648 249.131 226.871 250.353 226.566C251.574 226.261 252.866 226.454 253.946 227.102C255.025 227.75 255.802 228.801 256.107 230.022C256.354 231.011 262.083 254.639 250.959 275.395L250.961 275.4ZM274.198 173.391C274.198 174.649 273.698 175.857 272.808 176.747C271.918 177.637 270.711 178.137 269.452 178.137C268.193 178.137 266.986 177.637 266.096 176.747C265.206 175.857 264.706 174.649 264.706 173.391V104.643C264.706 103.384 265.206 102.177 266.096 101.287C266.986 100.397 268.193 99.8968 269.452 99.8968C270.711 99.8968 271.918 100.397 272.808 101.287C273.698 102.177 274.198 103.384 274.198 104.643V173.391ZM295.467 277.335C294.357 277.93 293.057 278.06 291.852 277.696C290.647 277.332 289.636 276.504 289.042 275.395C277.918 254.639 283.647 231.011 283.896 230.017C284.201 228.795 284.979 227.745 286.058 227.098C287.137 226.45 288.429 226.257 289.651 226.562C290.872 226.867 291.922 227.645 292.57 228.724C293.218 229.803 293.41 231.096 293.105 232.317C293.021 232.664 288.082 253.51 297.407 270.91C298.002 272.02 298.132 273.32 297.768 274.525C297.404 275.73 296.576 276.741 295.467 277.335ZM331.246 196.999C324.309 197.29 313.23 199.542 310.318 203.634C309.956 204.142 309.499 204.573 308.97 204.904C308.442 205.235 307.854 205.459 307.24 205.562C306.625 205.666 305.996 205.647 305.388 205.508C304.781 205.368 304.207 205.11 303.699 204.749C303.191 204.388 302.76 203.93 302.429 203.402C302.098 202.874 301.874 202.285 301.771 201.671C301.667 201.056 301.686 200.427 301.825 199.82C301.965 199.212 302.222 198.638 302.584 198.13C305.612 193.876 311.42 190.797 319.849 188.983C323.476 188.21 327.157 187.719 330.86 187.515C332.109 187.478 333.322 187.935 334.236 188.787C335.151 189.639 335.692 190.817 335.743 192.066C335.793 193.315 335.35 194.533 334.508 195.456C333.666 196.38 332.494 196.934 331.246 196.999Z" fill="black"/>
</svg>
