<svg width="297" height="66" viewBox="0 0 297 66" fill="none" xmlns="http://www.w3.org/2000/svg">
<path d="M8.048 57.8H44.336V65H0.368V1.64H8.048V57.8ZM104.723 1.64V41.384C104.723 49.512 102.579 55.656 98.291 59.816C94.003 63.912 87.859 65.96 79.859 65.96C71.923 65.96 65.779 63.912 61.427 59.816C57.139 55.656 54.995 49.512 54.995 41.384V1.64H62.675V39.464C62.675 46.056 64.051 50.92 66.803 54.056C69.619 57.192 73.971 58.76 79.859 58.76C85.747 58.76 90.067 57.192 92.819 54.056C95.635 50.92 97.043 46.056 97.043 39.464V1.64H104.723ZM146.58 1.64C150.868 1.64 154.58 2.44 157.716 4.04C160.916 5.576 163.412 7.784 165.204 10.664C166.996 13.544 167.892 16.968 167.892 20.936C167.892 24.904 166.996 28.328 165.204 31.208C163.412 34.088 160.916 36.328 157.716 37.928C154.58 39.464 150.868 40.232 146.58 40.232H131.892V65H124.212V1.64H146.58ZM145.428 33.032C150.42 33.032 154.068 32.008 156.372 29.96C158.676 27.848 159.828 24.84 159.828 20.936C159.828 16.968 158.676 13.96 156.372 11.912C154.068 9.864 150.42 8.84 145.428 8.84H131.892V33.032H145.428ZM231.286 1.64V41.384C231.286 49.512 229.142 55.656 224.854 59.816C220.566 63.912 214.422 65.96 206.422 65.96C198.486 65.96 192.342 63.912 187.99 59.816C183.702 55.656 181.558 49.512 181.558 41.384V1.64H189.238V39.464C189.238 46.056 190.614 50.92 193.366 54.056C196.182 57.192 200.534 58.76 206.422 58.76C212.31 58.76 216.63 57.192 219.382 54.056C222.198 50.92 223.606 46.056 223.606 39.464V1.64H231.286ZM271.126 0.679998C276.694 0.679998 281.494 1.832 285.526 4.136C289.558 6.376 292.918 9.704 295.606 14.12L289.174 19.112C286.806 15.016 284.118 12.136 281.11 10.472C278.166 8.744 274.582 7.88 270.358 7.88C265.238 7.88 261.494 8.904 259.126 10.952C256.758 13 255.574 15.496 255.574 18.44C255.574 20.68 256.278 22.664 257.686 24.392C259.094 26.056 261.91 27.368 266.134 28.328L279.862 31.4C285.942 32.744 290.166 34.792 292.534 37.544C294.966 40.232 296.182 43.592 296.182 47.624C296.182 51.208 295.158 54.408 293.11 57.224C291.126 59.976 288.31 62.12 284.662 63.656C281.014 65.192 276.726 65.96 271.798 65.96C264.95 65.96 259.286 64.616 254.806 61.928C250.326 59.176 246.902 55.848 244.534 51.944L251.254 46.472C253.11 50.12 255.734 53.096 259.126 55.4C262.582 57.64 266.966 58.76 272.278 58.76C277.206 58.76 281.078 57.864 283.894 56.072C286.774 54.28 288.214 51.688 288.214 48.296C288.214 46.248 287.542 44.424 286.198 42.824C284.854 41.16 282.326 39.912 278.614 39.08L263.734 35.72C257.846 34.44 253.654 32.36 251.158 29.48C248.726 26.6 247.51 23.272 247.51 19.496C247.51 16.104 248.438 13 250.294 10.184C252.214 7.304 254.934 5 258.454 3.272C262.038 1.544 266.262 0.679998 271.126 0.679998Z" fill="url(#paint0_linear)"/>
<defs>
<linearGradient id="paint0_linear" x1="146" y1="3" x2="146" y2="65" gradientUnits="userSpaceOnUse">
<stop stop-color="white"/>
<stop offset="1" stop-color="#363636"/>
</linearGradient>
</defs>
</svg>
